<?xml version="1.0" encoding="UTF-8"?>
<!-- Created with Inkscape (http://www.inkscape.org/) -->
<svg width="555.94" height="588.27" version="1.1" viewBox="0 0 555.94 588.27" xmlns="http://www.w3.org/2000/svg">
 <g>
  <path d="m280.91 0.01393-86.723 146.31 8.7364-1.232 77.934-131.48 129.76 223.31 6.6113-2.3047-133.37-229.52zm-121.45 218.4-9.1797 1.9805-149.92 252.93h256.35l-6.1485-6.8751h-238.12zm302.84 93.781-4.6172 5.7403 86.293 148.51h-168l-8.3008 6.8751h188.25z" color="#000000" style="-inkscape-stroke:none"/>
  <path d="m248.11 148.22c-50.376-0.07-90.505 11.927-100.14 14.004-15.573 3.2813-20.423 11.257-24.277 16.621-6.9792 9.7396-16.764 22.181-22.754 33.223-7.1875 13.177-0.053 16.764 14.844 10.41 26.563-11.198 105.57-26.706 112.66-21.914 3.2812 2.1354-54.369 72.702-57.285 77.91-0.312 0.573-26.003 5.4167-44.336 16.875-10 6.25-14.993 12.962-13.379 23.535 1.7188 11.562 16.25 17.663 15.156 20.059-3.0208 6.6666-21.035 31.667-32.441 63.281-3.3333 9.3229 0.053 17.552 4.8437 19.688 6.6145 2.9688 16.654-2.5976 19.102-5.8789 3.0208-4.0104 16.159-21.719 24.023-32.969 8.2292-11.771-3.0735-12.188-4.2188-12.969-0.5733-0.365 14.831-26.361 15.508-26.309 39.531 3.3855 69.746 0.58 94.277-4.6289 36.979-7.9166 65.631-30.937 48.027-12.5-47.187 49.583-49.486 86.393-50.84 97.852-1.4063 12.083 0.996 58.392 59.277 58.652 64.583 0.313 146.82-81.458 149.38-84.844 1.6667-2.1354 8.0208-22.708-4.2188-12.656-67.031 55.312-113.28 69.115-127.97 68.438-3.698-0.156-32.559 0.996-30.996-36.504 2.3959-57.135 76.4-124.64 118.07-149.06 39.115-22.969 35.944-2.7148 34.121 3.2227-3.4375 11.302-28.229 38.327-41.25 49.941-4.3749 3.9063-6.5036 6.0482-6.3476 1.3085 0.4693-11.25-14.909 4.1081-11.055 0.723 5.1563-4.6354-19.062 16.413-33.906 29.59-17.344 15.26-9.8439 27.598-5.9376 30.723 1.8751 1.5104 14.746 11.523 50.059-15.352 16.719-12.708 37.858-31.719 48.535-44.219 21.094-24.688 27.461-44.323 28.086-56.406 0.3653-6.6666-0.6907-30.937-29.961-31.25-39.583-0.417-102.97 53.333-93.906 43.125 17.135-19.323 18.706-54.271 18.652-61.25-0.156-20.052-11.979-51.204-46.25-60.84-25.228-7.0801-50.247-9.5987-73.145-9.6289zm1.8359 48.75s87.923-0.631 89.902 29.629c2.0833 32.552-75.521 93.913-152.5 74.59-1.0933-0.26 9.3164-14.336 9.3164-14.336s18.861-4.1146 25.215-5.625c10.885-2.5521 12.604-10.41 4.3751-9.629-3.0729 0.26-15.104 1.4584-22.344 1.5625-1.0413 0.05 8.6523-10.729 24.277-34.219 14.167-21.198 21.914-25.775 21.758-41.973z"/>
  <path d="m47.969 587.96h-18.75l-1.5624-18.594h-7.6563l-1.4063 18.594h-18.594l11.823-94.062h24.427zm-24.115-70.677-2.7084 36.562h5.3647l-2.6563-36.562"/>
  <path d="m81.771 526.18v-10.886c0-5.3645-0.7293-6.6145-3.1251-6.6145-2.3957 0-2.6561 1.1458-2.6561 7.5v51.614c-0.156 3.3855 0.6773 4.7917 2.8124 4.7917 2.3959 0 2.9688-1.4062 2.9688-7.1875v-17.24h19.74v21.771c0 7.8645-0.9893 11.823-3.8021 14.635-2.9687 2.8125-6.7708 3.6979-17.76 3.6979-15 0-18.802-1.1459-21.719-5.9375-1.4583-2.2917-1.9791-4.6354-1.9791-10.312-0.156-2.0833-0.156-6.4583-0.156-10.833v-45.886c0-12.083 0.5733-14.531 3.4896-17.917 3.2812-3.4896 5.6771-4.0625 17.396-4.0625 15.208 0 18.333 0.573 21.302 4.2187 2.6563 3.2292 3.2292 5.9375 3.2292 16.25v12.396h-19.74"/>
  <path d="m137.86 526.18v-10.886c0-5.3645-0.7293-6.6145-3.1249-6.6145-2.3959 0-2.6563 1.1458-2.6563 7.5v51.614c-0.156 3.3855 0.6773 4.7917 2.8124 4.7917 2.3959 0 2.9688-1.4062 2.9688-7.1875v-17.24h19.74v21.771c0 7.8645-0.9893 11.823-3.8021 14.635-2.9687 2.8125-6.7708 3.6979-17.76 3.6979-14.948 0-18.802-1.1459-21.719-5.9375-1.4584-2.2917-1.9792-4.6354-1.9792-10.312-0.156-2.0833-0.156-6.4583-0.156-10.833v-45.886c0-12.083 0.5733-14.531 3.5416-17.917 3.2292-3.4896 5.6251-4.0625 17.344-4.0625 15.208 0 18.333 0.573 21.302 4.2187 2.6563 3.2292 3.2292 5.9375 3.2292 16.25v12.396h-19.74"/>
  <path d="m188.85 572.33h11.042v15.625h-30.937v-94.062h30.937v15.052h-11.042v19.479h11.042v15.364h-11.042v28.542"/>
  <path d="m235.31 526.18v-11.146c0-2.9687-0.1067-3.9583-0.416-4.6354-0.5733-0.99-1.4061-1.7187-2.3957-1.7187-0.9893 0-2.0833 0.729-2.5521 1.7187-0.26 0.833-0.416 1.5104-0.416 4.6354v6.9271c0 3.0729 0.8853 4.2188 4.5312 6.1979l8.4896 4.6354c11.146 6.198 12.656 8.75 12.656 21.458v15.104c0 8.177-0.5733 10.833-2.8125 13.802-3.0728 4.2188-6.4583 5.1042-21.146 5.1042-11.719 0-14.948-0.729-18.073-4.2708-1.8229-1.9792-2.6563-4.2188-3.1251-7.7604-0.26-1.823-0.26-3.9063-0.26-10.26v-16.927h19.74v18.177c0 3.8021 0.8853 5.3646 2.9688 5.3646 1.8229 0 2.8124-1.5625 2.8124-4.2187v-12.865l-0.1067-1.9792c-0.156-3.4896-0.5733-4.2187-3.9583-6.0416-1.3027-0.729-2.2917-1.1459-2.3959-1.3022l-8.3333-4.6354c-9.1667-5.2083-10.729-8.1771-10.729-19.896v-10.99c0-7.7604 0.8333-11.146 3.8021-13.854 3.1249-2.8125 6.7708-3.4896 20.469-3.4896 11.979 0 15.261 0.833 18.177 4.7917 2.3957 3.0729 2.9687 6.0417 2.9687 14.792v13.281h-19.896"/>
  <path d="m290.94 526.18v-11.146c0-2.9687-0.1067-3.9583-0.416-4.6354-0.5733-0.99-1.4063-1.7187-2.3959-1.7187-0.9893 0-2.1353 0.729-2.552 1.7187-0.26 0.833-0.416 1.5104-0.416 4.6354v6.9271c0 3.0729 0.8333 4.2188 4.5312 6.1979l8.4375 4.6354c11.146 6.198 12.708 8.75 12.708 21.458v15.104c0 8.177-0.5733 10.833-2.8125 13.802-3.1251 4.2188-6.5104 5.1042-21.198 5.1042-11.667 0-14.948-0.729-18.021-4.2708-1.8229-1.9792-2.7083-4.2188-3.1249-7.7604-0.26-1.823-0.26-3.9063-0.26-10.26v-16.927h19.74v18.177c0 3.8021 0.8333 5.3646 2.9687 5.3646 1.8229 0 2.8125-1.5625 2.8125-4.2187v-12.865l-0.1067-1.9792c-0.156-3.4896-0.6253-4.2187-4.0104-6.0416-1.2493-0.729-2.2396-1.1459-2.3439-1.3022l-8.3333-4.6354c-9.1667-5.2083-10.729-8.1771-10.729-19.896v-10.99c0-7.7604 0.8333-11.146 3.802-13.854 3.1251-2.8125 6.7709-3.4896 20.469-3.4896 11.979 0 15.208 0.833 18.177 4.7917 2.3959 3.0729 2.9688 6.0417 2.9688 14.792v13.281h-19.896"/>
  <path d="m366.72 559.62c0 14.792 0 16.615-0.6773 19.167-1.1453 4.6355-3.6979 7.5-7.9167 8.4896-2.552 0.677-6.0416 0.99-14.792 0.99-9.4792 0-12.448-0.312-15.104-1.5625-4.9479-2.2917-6.7708-6.6667-6.7708-15.677v-57.969c0-8.0209 0.26-10.573 1.5625-12.969 1.6667-3.6979 4.4792-5.625 9.0104-6.1979 2.3959-0.312 6.6145-0.417 12.292-0.417 12.812 0 15.625 0.521 18.75 3.6458 1.9791 2.1354 3.0728 4.7916 3.3853 8.1771 0.26 3.125 0.26 5.1041 0.26 16.51zm-25.521 3.8021v4.0625c0 3.5416 0.8333 5.1041 2.9688 5.1041 1.8229 0 2.6563-1.3021 2.6563-4.375v-55.156c0-2.8125-0.8333-4.1146-2.6563-4.1146-1.4063 0-2.5521 0.885-2.8125 2.5521-0.156 0.573-0.156 2.7083-0.156 5.6771v46.25"/>
  <path d="m399.79 493.89 7.0313 0.104c13.854 0.312 17.239 3.9583 17.239 18.229v9.8437c0 13.125-1.9791 17.656-8.9061 19.479 3.3853 1.1459 5.3645 2.7083 6.7708 5.2083 1.8229 3.2813 2.1353 5.7813 2.1353 16.823v24.375h-19.739v-28.229c0-9.2709 0-9.1667-4.948-9.2709h-0.8853v37.5h-19.844v-94.062zm0.156 39.323c3.8021 0 4.3751-0.833 4.3751-6.875v-10.156l-0.156-2.5521c0-3.3854-0.8333-4.375-3.5417-4.375h-2.1353v23.958h1.4583"/>
  <path d="m435.94 493.89h19.896v94.062h-19.896z"/>
  <path d="m488.18 572.33h11.042v15.625h-30.937v-94.062h30.937v15.052h-11.042v19.479h11.042v15.364h-11.042v28.542"/>
  <path d="m534.64 526.18v-11.146c0-2.9687-0.156-3.9583-0.416-4.6354-0.573-0.99-1.4063-1.7187-2.3958-1.7187-0.989 0-2.0833 0.729-2.5521 1.7187-0.26 0.833-0.416 1.5104-0.416 4.6354v6.9271c0 3.0729 0.8853 4.2188 4.5312 6.1979l8.4376 4.6354c11.146 6.198 12.708 8.75 12.708 21.458v15.104c0 8.177-0.573 10.833-2.8126 13.802-3.1249 4.2188-6.5104 5.1042-21.146 5.1042-11.719 0-14.948-0.729-18.073-4.2708-1.8229-1.9792-2.6563-4.2188-3.1251-7.7604-0.26-1.823-0.26-3.9063-0.26-10.26v-16.927h19.74v18.177c0 3.8021 0.8853 5.3646 2.9688 5.3646 1.8228 0 2.8124-1.5625 2.8124-4.2187v-12.865l-0.156-1.9792c-0.107-3.4896-0.521-4.2187-3.9061-6.0416-1.3027-0.729-2.2918-1.1459-2.3959-1.3022l-8.3333-4.6354c-9.1667-5.2083-10.729-8.1771-10.729-19.896v-10.99c0-7.7604 0.8333-11.146 3.8021-13.854 3.1249-2.8125 6.7708-3.4896 20.469-3.4896 11.979 0 15.208 0.833 18.177 4.7917 2.3959 3.0729 2.9688 6.0417 2.9688 14.792v13.281h-19.896"/>
  <path d="m444.13 434.87c-1.25 0-2.4479 0.3125-3.5417 0.83333-0.98958 0.57292-1.9792 1.4062-2.9167 2.5-0.83334 1.1458-1.4583 2.3958-1.875 3.75-0.41667 1.4062-0.625 2.8646-0.625 4.375 0 1.5625 0.20833 3.0208 0.625 4.375 0.41666 1.25 1.0417 2.5 1.875 3.75 0.83333 1.1458 1.7708 1.9792 2.9167 2.5 1.0938 0.57292 2.2917 0.83333 3.5417 0.83333 1.0938 0 2.1354-0.26041 3.125-0.83333 1.0938-0.52083 2.1354-1.3542 3.125-2.5 0.83333-1.25 1.4583-2.5 1.875-3.75 0.41667-1.3542 0.625-2.8125 0.625-4.375 0-1.5104-0.20833-2.9688-0.625-4.375-0.41667-1.3542-1.0417-2.6042-1.875-3.75-0.98959-1.0938-2.0312-1.9271-3.125-2.5-0.98959-0.52083-2.0312-0.83333-3.125-0.83333zm-1.0417 5.625h-0.41666v4.1667h0.41666c0.83334 0 1.4583-0.10413 1.875-0.41666 0.41667-0.41667 0.625-0.93751 0.625-1.6667 0-0.67708-0.20833-1.1458-0.625-1.4583-0.41666-0.41667-1.0417-0.625-1.875-0.625zm0.625-2.5c1.7708 0 3.125 0.41666 3.9583 1.25 0.93749 0.72916 1.4583 1.8229 1.4583 3.3333 0 1.1458-0.31249 2.0312-0.83333 2.7083-0.57292 0.72918-1.3542 1.1979-2.2917 1.4583 0.41667 0.31249 0.72917 0.72916 1.0417 1.25 0.41666 0.41666 0.72916 1.0417 1.0417 1.875l1.6667 4.1667h-3.3333l-1.6667-3.9583c-0.41667-1.0938-0.78125-1.875-1.0417-2.2917-0.31249-0.41666-0.57292-0.625-0.83333-0.625h-0.20833v6.875h-3.3333v-16.042zm0.41667-6.0417c1.5104 0 2.9167 0.36459 4.1667 1.0417 1.3542 0.72916 2.6042 1.7708 3.75 3.125 1.0937 1.4062 1.875 3.0208 2.2917 4.7917 0.52083 1.6667 0.83334 3.4896 0.83334 5.4167 0 1.9792-0.31251 3.75-0.83334 5.4167-0.41666 1.6667-1.1979 3.2812-2.2917 4.7917-1.1458 1.4063-2.3958 2.4479-3.75 3.125-1.25 0.72917-2.6563 1.0417-4.1667 1.0417-1.6667 0-3.2292-0.3125-4.5833-1.0417-1.25-0.67708-2.4479-1.7187-3.5417-3.125-1.1458-1.5104-1.9792-3.125-2.5-4.7917-0.41667-1.6667-0.625-3.4375-0.625-5.4167 0-1.9271 0.20833-3.75 0.625-5.4167 0.52083-1.7708 1.3542-3.3854 2.5-4.7917 1.0938-1.3542 2.2917-2.3958 3.5417-3.125 1.3542-0.67708 2.9167-1.0417 4.5833-1.0417z"/>
 </g>
</svg>
